<?xml version="1.0" encoding="UTF-8"?><svg id="Layer_2" xmlns="http://www.w3.org/2000/svg" viewBox="0 0 145.2 57.42"><defs><style>.cls-1{fill:#fff;stroke-width:0px;}</style></defs><g id="Layer_1-2"><path class="cls-1" d="m15.48,44.16H0v-.12c1.98-3.6,2.46-5.64,2.46-10.44V10.8C2.46,5.94,1.98,3.96,0,.36v-.12C8.4.24,10.68,0,15.42,0c12.84-.06,15.12,5.76,15.12,10.32,0,4.86-2.58,8.88-8.16,10.62,7.68,1.14,10.38,5.94,10.38,10.98,0,6.9-5.04,12.24-17.28,12.24Zm.72-24.06c5.88,0,7.98-4.8,7.98-9.36,0-5.46-3.42-8.4-9.66-8.4-2.4,0-4.26.24-5.76.54v17.22h7.44Zm9.6,12.12c0-5.64-2.88-9.72-9.06-9.72h-7.98v18.66c1.62.3,3.6.66,6,.66,7.44,0,11.04-3.9,11.04-9.6Z"/><path class="cls-1" d="m40.02,34.56v-14.16c0-3.06-1.2-5.16-2.82-6.42v-.24h8.7v19.8c0,4.5,2.04,6.78,5.7,6.78,3.3,0,5.46-1.98,6.78-4.62v-15.3c0-3-1.08-5.16-2.94-6.42v-.24h8.82v20.16c0,6.3.9,7.44,2.94,8.82v.12l-8.52,2.04v-6.9c-2.28,3.6-5.22,7.08-10.38,7.08-5.46,0-8.28-4.08-8.28-10.5Z"/><path class="cls-1" d="m72.96,44.04c1.2-3.36,1.5-6.36,1.5-11.7v-8.58c0-3.9-1.38-6.12-2.94-7.74v-.12l8.58-3.36v7.56h.3c2.64-2.88,5.94-7.26,10.2-7.26l-.12,7.44-.78.12c-1.2-.54-3.48-1.08-4.86-1.08-1.02,0-2.94,1.2-4.44,3.3v9.66c0,5.34.12,8.4,1.44,11.76v.12h-8.88v-.12Z"/><path class="cls-1" d="m104.94,45.06c-3.78,0-7.14-1.68-7.14-7.56v-21.3h-3.48v-1.08l8.88-8.04h.66v6.72h8.4v2.4h-8.4v21.18c0,2.64,1.38,4.02,4.14,4.02,2.28,0,3.66-.72,4.2-1.2l.66.84c-1.68,2.4-4.44,4.02-7.92,4.02Z"/><path class="cls-1" d="m118.44,51.54c2.64-.06,7.74-.96,9.78-5.94l.84-2.04-9.18-22.14c-1.74-4.26-2.58-6-4.08-7.5l10.56-.12v.12c-.9,1.26-1.44,3.84-.06,7.08l6,14.7,5.34-13.08c1.74-4.2.6-7.26-.42-8.7v-.12h7.98v.12c-2.16,2.22-3.06,4.02-4.62,7.86l-10.56,25.68c-3.12,7.56-6.72,9.48-11.46,9.96l-.12-5.88Z"/><path class="cls-1" d="m118.44,51.54H0c.2.27,1.48,2,.95,4.09-.21.83-.63,1.43-.95,1.79h118.56"/><path class="cls-1" d="m112.26,16.2h5.25c-.13-.3-.31-.65-.56-1.02-.39-.57-.81-.98-1.15-1.26-1.18-.04-2.36-.08-3.54-.12"/></g></svg>